<svg xmlns="http://www.w3.org/2000/svg" viewBox="0 0 18.83 14.8"><defs><style>.cls-1{fill:#fff;}</style></defs><title>Zasób 1</title><g id="Warstwa_2" data-name="Warstwa 2"><g id="Warstwa_1-2" data-name="Warstwa 1"><path class="cls-1" d="M8.64,14.42c.13-1,.25-2,.39-2.94.17-1.24.35-2.47.52-3.71.09-.69.17-1.37.26-2.06,0-.22.06-.43.08-.65s0-.19.19-.2A5.46,5.46,0,0,1,11.74,5l.37.1c.4.13.39.13.32.55s-.13,1-.2,1.47c-.09.65-.17,1.29-.26,1.94-.06.49-.14,1-.21,1.47-.12.91-.25,1.83-.37,2.74-.06.43-.12.85-.17,1.28,0,.16-.06.23-.23.24a5.17,5.17,0,0,1-1.66-.14C9.11,14.58,8.89,14.5,8.64,14.42Z"/><path class="cls-1" d="M9.11,5,7.88,14A5,5,0,0,1,5.21,9.46,4.57,4.57,0,0,1,6.58,6.39,5.22,5.22,0,0,1,9.11,5Z"/><path class="cls-1" d="M12,14.61l1.22-9a4.94,4.94,0,0,1,2.59,5.26A4.85,4.85,0,0,1,12,14.61Z"/><path class="cls-1" d="M4.91,10.5a26.44,26.44,0,0,1-2.7.71,2.82,2.82,0,0,1,.37-.63.33.33,0,0,0,0-.4,1.56,1.56,0,0,1-.22-.57,1.52,1.52,0,0,1,.27-.56c.16-.32.19-.33.06-.7a.79.79,0,0,1,.24-1,.37.37,0,0,0,.1-.48c-.09-.22-.15-.45-.22-.67,0,0,0,0,0,0l2.22,1.3c.19.11.19.12.1.36a5.35,5.35,0,0,0-.33,2.34,1.36,1.36,0,0,0,0,.2A.46.46,0,0,0,4.91,10.5Z"/><path class="cls-1" d="M15.74,12a5.22,5.22,0,0,0,.49-2,2.8,2.8,0,0,0-.06-.7.17.17,0,0,1,.14-.23l2.52-.67a1.39,1.39,0,0,1-.34.6.42.42,0,0,0,0,.53l0,.07a.67.67,0,0,1-.06.92.75.75,0,0,0-.11.8.71.71,0,0,1-.2.93.44.44,0,0,0-.1.59c.08.18.12.39.21.66Z"/><path class="cls-1" d="M2.45,1.19A2.25,2.25,0,0,1,3.58.58c.26.52.53,1,.8,1.56L5.6,4.55c.14.29.14.29-.14.49a2.76,2.76,0,0,1-.73.36.13.13,0,0,1-.19-.08l-.13-.24Z"/><path class="cls-1" d="M2.15,1.5c.28.47,1.89,3.68,2,4A2.31,2.31,0,0,1,1.74,4.3,2.47,2.47,0,0,1,2.15,1.5Z"/><path class="cls-1" d="M4,.52A2.33,2.33,0,0,1,6.46,1.76,2.45,2.45,0,0,1,6,4.5c-.27-.42-.45-.88-.68-1.31s-.46-.9-.69-1.36Z"/><path class="cls-1" d="M7,0c0,.1,0,.17,0,.23A.31.31,0,0,0,7.27.6a.28.28,0,0,1,.18.31.55.55,0,0,0,.24.47c.08.05.17.1.15.21a.47.47,0,0,0,.3.58c0,.14-.13.1-.19.11L7,2.36c-.15,0-.21,0-.25-.17a2.66,2.66,0,0,0-.52-1,.16.16,0,0,1,0-.24Z"/><path class="cls-1" d="M0,3.8a2.69,2.69,0,0,1,.89-.11c.14,0,.29-.13.41,0s.08.25.13.37A3.47,3.47,0,0,0,2,5L1.16,6c-.11,0-.08-.1-.08-.15a.34.34,0,0,0-.22-.38.26.26,0,0,1-.17-.28.6.6,0,0,0-.26-.5A.26.26,0,0,1,.3,4.38a.41.41,0,0,0-.22-.49S0,3.84,0,3.8Z"/></g></g></svg>