<svg xmlns="http://www.w3.org/2000/svg" viewBox="0 0 61.66 10.82"><defs><style>.cls-1{fill:#f7bb17;}.cls-2{fill:#fff;}</style></defs><title>Zasób 1</title><g id="Warstwa_2" data-name="Warstwa 2"><g id="Warstwa_1-2" data-name="Warstwa 1"><polygon class="cls-1" points="8.05 10.7 8.05 2.65 4.61 8.62 1.16 2.65 1.16 10.7 0.18 10.7 0.18 0.96 0 0.64 1.12 0.64 4.61 6.68 8.09 0.64 9.21 0.64 9.03 0.96 9.03 10.7 8.05 10.7"/><polygon class="cls-1" points="8.16 10.59 8.16 2.25 4.61 8.4 1.05 2.25 1.05 10.59 0.29 10.59 0.29 0.93 0.19 0.75 1.06 0.75 4.61 6.9 8.16 0.75 9.03 0.75 8.92 0.93 8.92 10.59 8.16 10.59"/><polygon class="cls-1" points="8.16 10.59 8.16 2.25 4.61 8.4 1.05 2.25 1.05 10.59 0.29 10.59 0.29 0.93 0.19 0.75 1.06 0.75 4.61 6.9 8.16 0.75 9.03 0.75 8.92 0.93 8.92 10.59 8.16 10.59"/><path class="cls-1" d="M1,.86,4.61,7.12,8.22.86h.62l0,0v9.58H8.27V1.84L4.61,8.18.94,1.84v8.64H.4V.9l0,0Z"/><path class="cls-1" d="M16.48,10.7,15.14,7h-3L10.77,10.7h-1L13.63,0l3.89,10.7ZM14.78,6,13.63,2.86,12.47,6Z"/><path class="cls-1" d="M16.56,10.59,15.22,6.91H12L10.7,10.59H9.89L13.63.32l3.73,10.27ZM14.94,6.15,13.63,2.54,12.32,6.15Z"/><path class="cls-1" d="M16.56,10.59,15.22,6.91H12L10.7,10.59H9.89L13.63.32l3.73,10.27ZM14.94,6.15,13.63,2.54,12.32,6.15Z"/><path class="cls-1" d="M15.29,6.8H12l-1.34,3.68H10L13.63.64l3.58,9.84h-.58Zm-.2-.54-1.46-4-1.47,4Z"/><path class="cls-1" d="M21,10.82a3,3,0,0,1-2.17-.91,3,3,0,0,1-.87-1.67l0-.18.94-.34,0,.28a2.1,2.1,0,1,0,3.57-1.74,4.12,4.12,0,0,0-1.39-.9,4.35,4.35,0,0,1-1.69-1,2.17,2.17,0,0,1-.66-1.6,2.16,2.16,0,0,1,.66-1.58A2.16,2.16,0,0,1,21,.53a2.18,2.18,0,0,1,1.59.66,1.77,1.77,0,0,1,.51.8l.07.2-.89.35-.08-.21A1.27,1.27,0,0,0,21,1.49a1.24,1.24,0,0,0-.91.38,1.21,1.21,0,0,0-.37.9,1.23,1.23,0,0,0,.37.91,3.66,3.66,0,0,0,1.07.69,4.85,4.85,0,0,1,2,1.21A2.93,2.93,0,0,1,24,7.74,3.07,3.07,0,0,1,21,10.82Z"/><path class="cls-1" d="M21,10.71a2.87,2.87,0,0,1-2.1-.88A2.82,2.82,0,0,1,18,8.22V8.13l.73-.26V8a2.22,2.22,0,0,0,3.76,1.3,2.21,2.21,0,0,0,0-3.13,4.25,4.25,0,0,0-1.43-.92,4.19,4.19,0,0,1-1.66-1,2.07,2.07,0,0,1-.62-1.52,2.08,2.08,0,0,1,.62-1.5A2.08,2.08,0,0,1,21,.64a2.12,2.12,0,0,1,1.52.62A1.88,1.88,0,0,1,23,2l0,.1-.68.27,0-.1a1.45,1.45,0,0,0-.33-.5,1.41,1.41,0,0,0-2,0,1.32,1.32,0,0,0-.4,1,1.36,1.36,0,0,0,.4,1,4.18,4.18,0,0,0,1.1.71,4.91,4.91,0,0,1,2,1.19,2.86,2.86,0,0,1,.87,2.08,2.9,2.9,0,0,1-.87,2.1A2.86,2.86,0,0,1,21,10.71Z"/><path class="cls-1" d="M21,10.71a2.87,2.87,0,0,1-2.1-.88A2.82,2.82,0,0,1,18,8.22V8.13l.73-.26V8a2.22,2.22,0,0,0,3.76,1.3,2.21,2.21,0,0,0,0-3.13,4.25,4.25,0,0,0-1.43-.92,4.19,4.19,0,0,1-1.66-1,2.07,2.07,0,0,1-.62-1.52,2.08,2.08,0,0,1,.62-1.5A2.08,2.08,0,0,1,21,.64a2.12,2.12,0,0,1,1.52.62A1.88,1.88,0,0,1,23,2l0,.1-.68.27,0-.1a1.45,1.45,0,0,0-.33-.5,1.41,1.41,0,0,0-2,0,1.32,1.32,0,0,0-.4,1,1.36,1.36,0,0,0,.4,1,4.18,4.18,0,0,0,1.1.71,4.91,4.91,0,0,1,2,1.19,2.86,2.86,0,0,1,.87,2.08,2.9,2.9,0,0,1-.87,2.1A2.86,2.86,0,0,1,21,10.71Z"/><path class="cls-1" d="M21.15,5.16a4.2,4.2,0,0,1-1.63-.94,2,2,0,0,1-.59-1.45,1.91,1.91,0,0,1,.59-1.42A2,2,0,0,1,21,.75a2,2,0,0,1,1.44.59,1.74,1.74,0,0,1,.46.72l-.49.19A1.35,1.35,0,0,0,22,1.71a1.51,1.51,0,0,0-2.11,0,1.42,1.42,0,0,0-.44,1.06,1.4,1.4,0,0,0,.44,1.06A3.88,3.88,0,0,0,21,4.57,4.86,4.86,0,0,1,23,5.73a2.74,2.74,0,0,1,.84,2,2.85,2.85,0,0,1-4.87,2,2.8,2.8,0,0,1-.8-1.55L18.66,8a2.32,2.32,0,0,0,3.95,1.36,2.24,2.24,0,0,0,.68-1.64,2.22,2.22,0,0,0-.68-1.63A4.34,4.34,0,0,0,21.15,5.16Z"/><polygon class="cls-1" points="26.64 10.7 26.64 1.62 24.2 1.62 24.2 0.64 30.05 0.64 30.05 1.62 27.61 1.62 27.61 10.7 26.64 10.7"/><polygon class="cls-1" points="26.75 10.59 26.75 1.51 24.31 1.51 24.31 0.75 29.94 0.75 29.94 1.51 27.5 1.51 27.5 10.59 26.75 10.59"/><polygon class="cls-1" points="26.75 10.59 26.75 1.51 24.31 1.51 24.31 0.75 29.94 0.75 29.94 1.51 27.5 1.51 27.5 10.59 26.75 10.59"/><path class="cls-1" d="M27.4,1.4v9.08h-.55V1.4H24.42V.86h5.41V1.4Z"/><polygon class="cls-1" points="30.82 10.7 30.82 0.64 36.06 0.64 36.06 1.62 31.79 1.62 31.79 5.18 36.06 5.18 36.06 6.16 31.79 6.16 31.79 9.72 36.06 9.72 36.06 10.7 30.82 10.7"/><polygon class="cls-1" points="30.93 10.59 30.93 0.75 35.96 0.75 35.96 1.51 31.68 1.51 31.68 5.29 35.96 5.29 35.96 6.05 31.68 6.05 31.68 9.83 35.96 9.83 35.96 10.59 30.93 10.59"/><polygon class="cls-1" points="30.93 10.59 30.93 0.75 35.96 0.75 35.96 1.51 31.68 1.51 31.68 5.29 35.96 5.29 35.96 6.05 31.68 6.05 31.68 9.83 35.96 9.83 35.96 10.59 30.93 10.59"/><path class="cls-1" d="M35.85.86V1.4H31.58v4h4.27v.54H31.58v4h4.27v.54H31V.86Z"/><path class="cls-1" d="M41.87,10.7,39.73,7.36H38.26V10.7h-1V.64H40a3.41,3.41,0,0,1,2,1A3.26,3.26,0,0,1,43,4a3.26,3.26,0,0,1-1,2.38,3.21,3.21,0,0,1-1.27.81l2.28,3.51ZM39.68,6.38a2.29,2.29,0,0,0,1.68-.7A2.3,2.3,0,0,0,42.05,4a2.36,2.36,0,0,0-2.37-2.37H38.26V6.38Z"/><path class="cls-1" d="M41.93,10.59,39.78,7.25H38.15v3.33h-.76V.75H40A3.34,3.34,0,0,1,42,1.7a3.14,3.14,0,0,1,1,2.3,3.11,3.11,0,0,1-1,2.3,3.12,3.12,0,0,1-1.36.83l2.25,3.46Zm-2.25-4.1a2.4,2.4,0,0,0,1.75-.73A2.37,2.37,0,0,0,42.16,4a2.4,2.4,0,0,0-.73-1.76,2.39,2.39,0,0,0-1.75-.72H38.15v5Z"/><path class="cls-1" d="M41.93,10.59,39.78,7.25H38.15v3.33h-.76V.75H40A3.34,3.34,0,0,1,42,1.7a3.14,3.14,0,0,1,1,2.3,3.11,3.11,0,0,1-1,2.3,3.12,3.12,0,0,1-1.36.83l2.25,3.46Zm-2.25-4.1a2.4,2.4,0,0,0,1.75-.73A2.37,2.37,0,0,0,42.16,4a2.4,2.4,0,0,0-.73-1.76,2.39,2.39,0,0,0-1.75-.72H38.15v5Z"/><path class="cls-1" d="M39.84,7.14H38v3.33H37.5V.86H40a3.23,3.23,0,0,1,1.87.92A3,3,0,0,1,42.82,4a3.15,3.15,0,0,1-2.38,3.06l2.22,3.42H42ZM38,1.41V6.6h1.64a2.49,2.49,0,0,0,1.83-.76A2.5,2.5,0,0,0,42.27,4a2.46,2.46,0,0,0-.76-1.83,2.49,2.49,0,0,0-1.83-.76Z"/><path class="cls-2" d="M44.09,10.7V8.14h-.34V7.85h1v.29h-.34V10.7Z"/><path class="cls-2" d="M45.18,10.7l-.33-2.85h.24l.22,2.05.27-2h.2l.28,2.05.22-2.06h.23l-.33,2.85H46l-.29-2.11L45.4,10.7Z"/><path class="cls-2" d="M47.27,10.74a.45.45,0,0,1-.33-.12.53.53,0,0,1-.18-.32,1.8,1.8,0,0,1,0-.49V8.73a1.8,1.8,0,0,1,0-.49.6.6,0,0,1,.18-.31.55.55,0,0,1,.66,0,.58.58,0,0,1,.17.31,1.77,1.77,0,0,1,.06.49V9.81a1.77,1.77,0,0,1-.06.49.62.62,0,0,1-.17.32A.45.45,0,0,1,47.27,10.74Zm0-.32a.24.24,0,0,0,.17-.06.37.37,0,0,0,.08-.19,2.13,2.13,0,0,0,0-.27V8.64a2.13,2.13,0,0,0,0-.27.33.33,0,0,0-.08-.18.24.24,0,0,0-.17-.06.24.24,0,0,0-.18.06.43.43,0,0,0-.08.18,2.13,2.13,0,0,0,0,.27V9.9a2.13,2.13,0,0,0,0,.27.47.47,0,0,0,.08.19A.24.24,0,0,0,47.27,10.42Z"/><path class="cls-2" d="M48,10.77v-.29h.15a.16.16,0,0,0,.09-.07.22.22,0,0,0,0-.13,1.27,1.27,0,0,0,0-.22V7.85h.28v2.21a1.49,1.49,0,0,1,0,.4.37.37,0,0,1-.13.23.41.41,0,0,1-.28.08Z"/><path class="cls-2" d="M48.76,10.7l.44-2.85h.27l.44,2.85h-.27L49.55,10h-.42l-.1.72Zm.41-1h.34l-.17-1.29Z"/><path class="cls-2" d="M50.7,10.7V7.85h.45a.64.64,0,0,1,.36.09.58.58,0,0,1,.19.3,1.64,1.64,0,0,1,0,.48v1a1.91,1.91,0,0,1,0,.51.64.64,0,0,1-.19.32.51.51,0,0,1-.34.1Zm.29-.28h.16a.25.25,0,0,0,.22-.09.4.4,0,0,0,.08-.24c0-.11,0-.24,0-.4V8.77a1.73,1.73,0,0,0,0-.36.34.34,0,0,0-.08-.2.29.29,0,0,0-.22-.07H51Z"/><path class="cls-2" d="M52,10.7V7.85h.41a.69.69,0,0,1,.34.07.47.47,0,0,1,.2.25,1.29,1.29,0,0,1,.06.44,2.66,2.66,0,0,1,0,.3,1.23,1.23,0,0,1-.08.23.37.37,0,0,1-.15.13l.29,1.43h-.28l-.27-1.34h-.22V10.7Zm.28-1.62h.11a.54.54,0,0,0,.2,0,.25.25,0,0,0,.11-.15,1,1,0,0,0,0-.28.83.83,0,0,0-.07-.37.28.28,0,0,0-.26-.11h-.13Z"/><path class="cls-2" d="M53.88,10.74a.46.46,0,0,1-.34-.13.67.67,0,0,1-.16-.35,2.54,2.54,0,0,1-.05-.52V7.85h.28V9.76c0,.12,0,.23,0,.33a.67.67,0,0,0,.08.24.22.22,0,0,0,.36,0,.67.67,0,0,0,.08-.24c0-.1,0-.21,0-.33V7.85h.28V9.74a2.54,2.54,0,0,1,0,.52.67.67,0,0,1-.16.35A.46.46,0,0,1,53.88,10.74Z"/><path class="cls-2" d="M54.73,10.7V7.85H55V9.19l.48-1.34h.26l-.4,1.26.47,1.59h-.28l-.39-1.34L55,9.69v1Z"/><path class="cls-2" d="M55.87,10.7l.44-2.85h.27L57,10.7h-.27L56.66,10h-.42l-.1.72Zm.41-1h.34l-.17-1.29Z"/><path class="cls-2" d="M57.23,10.7V7.85h.41a.69.69,0,0,1,.34.07.43.43,0,0,1,.2.25,1.29,1.29,0,0,1,.06.44,1.42,1.42,0,0,1,0,.3.78.78,0,0,1-.08.23.37.37,0,0,1-.15.13l.29,1.43H58l-.27-1.34h-.22V10.7Zm.29-1.62h.1a.5.5,0,0,0,.2,0,.25.25,0,0,0,.11-.15.72.72,0,0,0,0-.28.71.71,0,0,0-.07-.37.28.28,0,0,0-.26-.11h-.12Z"/><path class="cls-2" d="M58.54,10.7V7.85h.2l.58,1.89V7.85h.24V10.7h-.18l-.59-1.95V10.7Z"/><path class="cls-2" d="M59.9,10.7V7.85h.28V10.7Z"/><path class="cls-2" d="M60.4,10.7l.44-2.85h.27l.44,2.85h-.27L61.19,10h-.42l-.1.72Zm.41-1h.34L61,8.41Z"/><path class="cls-2" d="M46.56,7.22a2.8,2.8,0,0,1-2.11-.94A3.2,3.2,0,0,1,43.58,4a3.19,3.19,0,0,1,.87-2.25,2.83,2.83,0,0,1,4.12-.1l.08.07-.4.39-.07-.07a2.32,2.32,0,0,0-3.34.1A2.63,2.63,0,0,0,44.12,4a2.64,2.64,0,0,0,.72,1.87,2.33,2.33,0,0,0,3.21.22V4.76h-1V4.22h1.52V6.33l0,0A2.68,2.68,0,0,1,46.56,7.22Z"/><path class="cls-2" d="M48.47,6.29a2.6,2.6,0,0,1-1.91.82,2.64,2.64,0,0,1-2-.91A3.07,3.07,0,0,1,43.69,4a3.1,3.1,0,0,1,.84-2.18,2.73,2.73,0,0,1,4-.1L48.25,2a2.36,2.36,0,0,0-1.69-.69,2.39,2.39,0,0,0-1.8.8A2.72,2.72,0,0,0,44,4,2.73,2.73,0,0,0,44.76,6a2.36,2.36,0,0,0,1.8.8,2.44,2.44,0,0,0,1.6-.59V4.65h-1V4.33h1.3Z"/><path class="cls-2" d="M52.44,7.14,51.19,5.05h-.88V7.14h-.53V.9h1.58a2,2,0,0,1,1.17.61A2.09,2.09,0,0,1,53.1,3a2,2,0,0,1-.57,1.46,1.79,1.79,0,0,1-.77.52l1.33,2.18ZM51.16,4.49a1.25,1.25,0,0,0,1-.44A1.5,1.5,0,0,0,52.56,3a1.51,1.51,0,0,0-.42-1.08,1.28,1.28,0,0,0-1-.44h-.85v3Z"/><path class="cls-2" d="M51.25,4.94h-1V7h-.31V1h1.47a1.86,1.86,0,0,1,1.09.58A2,2,0,0,1,53,3a2,2,0,0,1-.54,1.39,1.7,1.7,0,0,1-.85.52L52.89,7H52.5Zm-1-3.58V4.6h1a1.41,1.41,0,0,0,1.06-.47A1.62,1.62,0,0,0,52.67,3a1.62,1.62,0,0,0-.45-1.15,1.38,1.38,0,0,0-1.06-.47Z"/><path class="cls-2" d="M57.55,7.14l-.78-2.3H55l-.78,2.3h-.57L55.88.53l2.24,6.61Zm-1-2.86-.7-2.08-.71,2.08Z"/><path class="cls-2" d="M56.85,4.73H54.91L54.12,7h-.33L55.88.87,58,7h-.33Zm-.12-.34-.85-2.53L55,4.39Z"/><polygon class="cls-2" points="58.99 7.14 58.99 0.9 61.66 0.9 61.66 1.46 59.52 1.46 59.52 3.75 61.66 3.75 61.66 4.3 59.52 4.3 59.52 7.14 58.99 7.14"/><path class="cls-2" d="M61.55,1v.34H59.41v2.5h2.14v.34H59.41V7H59.1V1Z"/></g></g></svg>