<svg xmlns="http://www.w3.org/2000/svg" viewBox="0 0 251 110.5"><defs><style>.cls-1{fill:#373737;}.cls-2{fill:#fff;}</style></defs><title>Zasób 4</title><g id="Warstwa_2" data-name="Warstwa 2"><g id="Warstwa_1-2" data-name="Warstwa 1"><polygon class="cls-1" points="222.55 110.5 0 110.5 0 0 222.55 0 251 55.25 222.55 110.5"/><path class="cls-2" d="M46.3,75.94a45,45,0,0,1-5,.3q-7.22,0-10.56-1.95a9.89,9.89,0,0,1-4.48-6.63Q25.11,63,25.11,53.36t1.14-14.27a10,10,0,0,1,4.51-6.63q3.39-2,10.53-2a40.13,40.13,0,0,1,5.07.32,28.39,28.39,0,0,1,4.16.78v6.63a68.57,68.57,0,0,0-7.34-.58q-4.87,0-6.76.94t-2.44,4a70.43,70.43,0,0,0-.55,10.83A70.28,70.28,0,0,0,34,64.18c.37,2,1.18,3.34,2.44,4s3.51,1,6.76,1a49.11,49.11,0,0,0,7.54-.59v6.7A31.73,31.73,0,0,1,46.3,75.94Z"/><path class="cls-2" d="M54.75,75.72V31H80.88v7.15H63V49.52H78.41v7.22H63V68.57H80.88v7.15Z"/><path class="cls-2" d="M109,75.72,93.49,47.44h-.26V75.72h-8V31h8.45l14.89,26.84h.26V31h8V75.72Z"/><path class="cls-2" d="M146.53,75.72,131.06,47.44h-.26V75.72h-8V31h8.45l14.89,26.84h.26V31h8V75.72Z"/><path class="cls-2" d="M160.44,75.72V31h8.32V75.72Z"/><path class="cls-2" d="M198.14,75.72,187.28,56.61h-4.16V75.72h-8.25V31h8.25V49.39h4.16L198.4,31h8.84L194,52.38l13.45,23.34Z"/></g></g></svg>